<svg width="52" height="89" viewBox="0 0 52 89" fill="none" xmlns="http://www.w3.org/2000/svg">
<rect width="52" height="89" fill="#1E1E1E"/>
<g id="V5 - Page Accueil" clip-path="url(#clip0_0_1)">
<rect width="1440" height="4513" transform="translate(-39 -2925)" fill="white"/>
<g id="NEWS">
<g id="Fl&#195;&#168;che ">
<g id="Group">
<path id="Vector" d="M13.3352 28.4726C13.8134 28.3125 14.3433 27.3121 13.9168 26.6418L13.8005 26.0815C13.5032 26.4817 12.1203 27.8423 13.3352 28.4726Z" fill="#1674BA"/>
<path id="Vector_2" d="M14.6471 32.0442C14.8798 31.444 14.5308 31.484 14.3563 31.2539L13.9169 31.7741C13.9298 32.2944 14.408 32.1243 14.6471 32.0442Z" fill="white"/>
<path id="Vector_3" d="M17.833 39.2074L17.7684 39.5276C17.833 39.2074 18.001 38.9273 18.1367 38.8072C17.9881 38.4071 17.5745 38.257 17.3742 38.6972C17.5486 38.9373 17.82 38.6972 17.833 39.2074Z" fill="#1674BA"/>
<path id="Vector_4" d="M21.3358 24.5809C21.911 25.6414 22.1759 27.7923 22.0725 29.4631L23.0806 31.1938C23.1194 29.8432 24.1857 29.5431 24.8578 28.9228C25.2779 29.0729 24.5089 30.1634 25.3296 29.9433C25.2844 29.5831 25.0323 29.1529 25.0969 28.8328C25.8918 28.7728 26.215 30.6036 27.3136 28.9428L27.3523 27.5922C29.5431 25.4613 32.4641 24.781 34.1379 21.7797C34.9134 22.3899 35.8439 20.9993 36.7422 20.9693L36.5161 20.379C37.298 20.9893 37.4143 19.1485 37.9249 18.8083L38.1058 17.8479C37.8667 16.7374 36.7487 18.5782 36.5161 16.7975C37.0524 15.1067 38.5517 16.6374 38.8748 14.8766C39.5017 13.8962 39.6956 14.6465 40.2772 14.5064C40.6391 14.9666 40.3676 15.2167 40.6972 15.847C42.4873 14.5765 41.2788 11.4351 42.8298 10.2545C43.0883 10.6847 44.7492 10.7248 43.9801 12.5155L43.2176 12.4255L43.1465 13.426C43.5472 13.0458 44.2515 12.2654 44.4454 13.0058C44.0448 10.3146 48.0192 12.3155 45.5247 10.1245C45.0852 11.345 44.8397 11.4351 44.0319 10.9949C45.4601 9.25411 46.4165 7.02311 47.6508 5.72254L48.4328 6.3228C48.0515 5.34237 48.3875 4.09182 48.8722 3.23144C49.2147 3.17141 49.512 2.76123 49.6348 3.31147C49.9967 3.77168 47.6185 5.88261 49.4086 6.47287C50.6235 4.65206 51.7092 2.28101 52 0C51.2568 0.440195 50.9014 1.18053 49.6735 0.600272C46.8172 1.71076 44.7362 5.27234 41.8281 6.00266C42.0285 6.75299 41.5374 7.61338 42.0026 8.1036C41.9897 8.7839 41.2013 8.85393 41.4404 9.96442C39.2949 10.7748 37.4789 13.3959 35.9409 15.0767C35.6695 12.9357 34.5191 14.9266 33.7889 14.6765C33.6855 15.837 32.8325 16.2172 32.2961 16.7174C32.1151 16.4873 31.7468 16.6974 31.624 16.1372C32.1022 15.9671 32.0828 15.4468 32.4124 14.8766C31.7274 13.7861 31.5787 15.777 31.0101 16.4373L31.6046 16.8174C30.6352 17.8379 30.3444 21.1594 28.955 20.8392L29.2135 18.8784C27.8823 19.4386 27.2037 22.4299 25.7755 21.7596C26.3313 20.5891 27.9469 20.309 27.2424 18.6983C26.8418 17.8679 26.0017 18.7683 25.7496 19.5287C24.6704 22.9001 21.8528 20.6892 21.3294 24.6009L21.3358 24.5809Z" fill="#1674BA"/>
<path id="Vector_5" d="M22.5509 19.3786C24.0308 18.038 24.2505 21.0193 25.5495 19.4286C25.0131 18.7283 25.3879 17.3277 25.8209 16.7975C26.4801 16.8575 26.8678 15.9771 27.2685 15.6069C27.4624 15.1567 26.9841 14.1363 26.4478 14.6365C25.8791 17.6778 23.0937 16.5073 22.5509 19.3786Z" fill="#1674BA"/>
<path id="Vector_6" d="M23.2873 25.4512C24.0692 24.881 22.9512 23.1102 23.8818 22.9301C23.1387 22.1497 23.4811 23.3003 22.8026 23.9105L23.4295 24.1406L23.2873 25.4612L23.2873 25.4512Z" fill="white"/>
<path id="Vector_7" d="M28.0307 16.8976C28.5412 16.5675 29.3878 14.9868 28.9419 13.8063C28.9742 13.6462 28.6123 13.176 28.9548 13.126C28.7028 13.8863 27.5654 15.1969 28.0307 16.8976Z" fill="#1674BA"/>
<path id="Vector_8" d="M27.9014 23.5104C28.2439 23.4604 28.5153 23.2103 28.916 22.8501C28.5735 22.9001 28.05 22.71 27.9014 23.5104Z" fill="white"/>
<path id="Vector_9" d="M29.5172 18.4482C29.7821 19.3987 29.9954 18.2782 30.1311 18.1481L30.2539 17.5078C29.9114 17.5578 29.5366 17.7679 29.5236 18.4482L29.5172 18.4482Z" fill="#1674BA"/>
<path id="Vector_10" d="M32.3996 11.9553C32.9231 10.9449 31.2493 11.5552 31.9796 10.6147L31.4755 10.9549L31.8633 12.4556L32.3996 11.9654L32.3996 11.9553Z" fill="#1674BA"/>
<path id="Vector_11" d="M32.9169 9.75436C33.2335 9.86441 33.4727 9.77437 33.6924 9.17411L33.3046 8.87397C33.0978 8.80394 33.1883 9.51426 32.9169 9.76437L32.9169 9.75436Z" fill="#1674BA"/>
<path id="Vector_12" d="M33.3107 13.6362C33.7566 13.6162 33.427 12.9959 33.5175 12.5157C33.2331 12.2456 32.9358 13.8463 33.3107 13.6362Z" fill="#1674BA"/>
<path id="Vector_13" d="M39.8828 18.4583C39.1332 17.6879 38.7907 18.9385 38.0733 19.2086C38.7907 18.9385 39.2883 19.2786 39.8828 18.4583Z" fill="#1674BA"/>
<path id="Vector_14" d="M8.13965 32.1641C8.01686 32.8043 7.5645 32.8043 7.2543 32.6843L7.2543 32.1641L8.13965 32.1641Z" fill="#1674BA"/>
<path id="Vector_15" d="M11.9075 27.7722C12.7218 28.7627 11.9592 28.6426 11.7847 30.1232C11.1514 31.0837 9.97524 30.8136 9.26437 31.5739L8.53415 31.2938C9.23209 30.0232 10.6021 28.1424 11.9011 27.7722L11.9075 27.7722Z" fill="#1674BA"/>
<path id="Vector_16" d="M15.0218 33.5449C14.6987 34.6254 13.6259 34.3953 13.2188 34.7554C13.8198 33.9551 14.6664 33.0647 15.1058 32.5444C15.2868 32.7845 15.0864 33.2247 15.0218 33.5449Z" fill="white"/>
<path id="Vector_17" d="M0.785238 38.2367C1.73521 37.4064 2.62706 35.1854 4.2879 35.8256C3.91954 36.546 4.06817 36.9361 3.42839 37.8966C4.64979 39.0571 4.47529 36.586 5.15384 35.9857C4.75317 36.8561 5.75487 36.8961 6.2654 36.586C6.96334 35.3154 8.42384 34.1549 9.64524 33.0744C10.4078 33.1945 11.6938 30.5933 12.1139 32.4642C12.8958 31.9039 12.4887 30.5533 12.8829 29.6729C15.2676 30.0531 14.324 23.3701 16.993 24.0204C16.4889 23.15 17.4001 22.4597 17.7039 22.0596C18.4083 21.2892 20.082 19.5184 20.4504 21.6994C20.4569 23.4102 18.6409 22.4097 18.3824 24.3606C17.8719 27.592 20.0562 23.7803 20.7477 25.391C20.4375 25.281 20.9222 26.8217 20.1273 26.8717C21.6718 26.4115 20.3535 29.1827 21.4004 29.5629C20.3858 31.9339 20.5215 31.8139 20.6508 34.5951C19.662 35.0853 19.313 33.4246 18.7508 32.8743C17.51 32.9344 17.5682 35.5255 16.6053 35.8557C18.2338 37.8265 16.0818 39.0871 15.1318 39.9375C13.9815 41.228 13.82 38.0767 12.6373 39.5173C12.4952 41.3481 14.576 39.8975 14.2723 42.0084L13.4774 42.0584C12.7084 41.4281 11.8941 40.4377 11.1639 40.1676C10.8925 40.4077 10.4854 40.7679 10.6275 41.168C11.319 41.088 11.5452 42.1985 11.2156 43.279C10.802 43.1189 10.6922 43.0789 10.4143 42.8088C10.382 39.0271 9.21872 43.7292 7.8293 42.8588C4.72087 42.7087 7.965 47.2007 5.32187 48.0811C5.03753 45.0497 3.38959 48.2011 2.31683 47.951C1.74167 48.5813 1.78694 49.4617 1.66416 50.6122C1.39273 50.5022 0.87571 50.8123 0.623676 50.4121C-0.306913 46.8806 -0.106565 42.5286 0.636614 38.1667C0.707701 38.1767 0.772325 38.1967 0.798175 38.2667L0.785238 38.2367Z" fill="#1674BA"/>
</g>
<g id="Group_2">
<path id="Vector_18" d="M21.4527 58.7862C21.7305 59.1864 22.3962 59.0763 22.4802 58.1559L22.6611 57.6557C22.3251 57.5856 21.1683 57.0454 21.4527 58.7862Z" fill="#1674BA"/>
<path id="Vector_19" d="M20.5801 62.6677C20.9291 62.4976 20.7546 62.1575 20.774 61.8073L20.3669 61.6973C20.1601 62.0674 20.438 62.4676 20.5801 62.6677Z" fill="white"/>
<path id="Vector_20" d="M19.0741 71.0516L18.919 71.2017C19.0741 71.0516 19.2679 71.0316 19.3713 71.0917C19.4683 70.6615 19.3455 70.1012 19.0805 70.1913C19.0611 70.5414 19.2809 70.6715 19.0805 71.0417L19.0741 71.0516Z" fill="#1674BA"/>
<path id="Vector_21" d="M26.6481 65.099C26.409 66.4296 25.5624 68.0903 24.8063 69.0808L24.4509 71.3318C25.0454 70.4914 25.5753 71.4918 26.0859 71.852C26.1699 72.4222 25.4202 72.2522 25.808 73.0325C25.9502 72.7524 26.0471 72.2021 26.2087 72.0621C26.5189 72.9225 25.8338 74.4231 26.9324 74.6232L27.5464 73.8229C29.246 75.0034 30.4351 77.9547 32.3027 78.2148C32.2316 79.4654 33.1299 79.7755 33.3755 80.826L33.6017 80.2357C33.5047 81.4863 34.4159 80.6259 34.7132 81.0561L35.2302 80.7559C35.7084 79.8755 34.5258 79.5154 35.3401 78.2949C36.3159 78.0347 35.9411 80.6559 36.904 80.1357C37.5567 80.3858 37.2335 81.0161 37.4597 81.6563C37.324 82.3366 37.1237 82.1365 36.904 82.8669C38.0349 84.4076 39.2821 81.3162 40.3226 82.5967C40.1739 83.137 40.678 85.2079 39.5342 85.1979L39.3403 84.2075L38.8104 84.6377C39.1206 84.9378 39.741 85.398 39.4243 86.0383C40.0447 85.0879 40.4131 86.0983 40.6974 86.8286C40.9818 87.559 41.1369 87.9891 41.2467 85.8482C40.4777 85.9582 40.3549 85.6981 40.3161 84.4676C41.6539 85.318 43.1014 85.2579 44.213 85.9683L44.2517 87.2588C44.5619 86.2284 45.2922 85.8682 45.8932 85.8982C46.0677 86.2684 46.3973 86.3284 46.2034 86.8286C46.1646 87.579 44.0966 86.0483 44.6201 88.5194C46.0548 88.8995 47.7479 88.5594 48.8271 87.2288C48.2585 86.7386 47.7415 86.8586 47.4183 85.0979C46.5395 83.8773 45.5507 83.187 44.5943 82.3867C43.6443 81.5863 42.7331 80.6759 42.145 79.1152C41.8348 79.7655 41.2726 79.6154 41.1563 80.4558C40.8137 80.796 40.5553 79.8756 40.0706 80.7459C39.0689 78.545 37.2917 77.6646 36.0445 76.7041C37.0332 75.2435 35.7278 74.9133 35.6438 73.8929C35.0428 74.3931 34.6098 73.5828 34.2027 73.2226C34.2608 72.8824 34.0411 72.5523 34.2738 72.1021C34.5064 72.5823 34.752 72.2722 35.1333 72.3522C35.4564 70.9216 34.4353 71.842 33.9377 71.5318L33.9377 72.4623C33.1364 71.862 31.482 73.4427 31.1783 71.6319L32.1864 70.7915C31.4755 69.531 29.847 70.5314 29.6467 68.4705C30.3899 68.4005 31.0878 70.1312 31.5983 68.3604C31.8503 67.4 31.1201 66.9398 30.6677 67.0999C29.6855 67.4801 29.1943 66.5296 28.6773 65.7093C28.1668 64.8889 27.6304 64.1886 26.6546 65.139L26.6481 65.099Z" fill="#1674BA"/>
<path id="Vector_22" d="M29.4914 63.2482C30.7063 64.1586 29.4009 66.2196 30.6223 66.7798C30.7516 65.7293 31.5465 65.3392 31.96 65.5393C32.1733 66.3496 32.7355 66.2996 33.0522 66.5697C33.3365 66.5497 33.6596 65.3892 33.2267 65.029C31.5723 66.1095 31.0553 62.1277 29.4849 63.2482L29.4914 63.2482Z" fill="#1674BA"/>
<path id="Vector_23" d="M27.0291 67.8803C27.5784 68.4105 27.9533 66.0295 28.3862 66.9799C28.4573 65.6393 28.0631 66.7398 27.5267 66.3496L27.6689 67.21L27.0291 67.8803Z" fill="white"/>
<path id="Vector_24" d="M32.7105 68.2202C33.0466 68.6304 34.0935 68.7505 34.5136 67.5599C34.604 67.5099 34.7074 66.8096 34.8496 67.1998C34.3908 67.3098 33.3568 66.6996 32.7105 68.2302L32.7105 68.2202Z" fill="#1674BA"/>
<path id="Vector_25" d="M29.5696 71.9621C29.7053 72.3323 29.9121 72.4923 30.2158 72.7424C30.0801 72.3723 29.9896 71.6519 29.5696 71.9621Z" fill="white"/>
<path id="Vector_26" d="M32.4771 70.8816C32.1152 71.742 32.7162 71.3418 32.8196 71.4318L33.1621 71.2117C33.0264 70.8316 32.8002 70.5014 32.4771 70.8816Z" fill="#1674BA"/>
<path id="Vector_27" d="M36.5554 70.7215C37.2211 70.8216 36.3939 69.1008 37.0918 69.491L36.7622 69.0508L36.1418 70.3313L36.5554 70.7115L36.5554 70.7215Z" fill="#1674BA"/>
<path id="Vector_28" d="M37.8216 70.1914C37.8668 70.6316 37.9767 70.8817 38.345 70.8417L38.3838 70.2014C38.3579 69.9113 38.0284 70.3915 37.8216 70.2014L37.8216 70.1914Z" fill="#1674BA"/>
<path id="Vector_29" d="M36 72.7422C36.1422 73.2824 36.349 72.5421 36.6204 72.392C36.6656 71.9018 35.7868 72.392 36 72.7422Z" fill="#1674BA"/>
<path id="Vector_30" d="M35.3789 83.2171C35.5663 81.9165 34.8619 82.1466 34.5582 81.4363C34.8619 82.1466 34.8231 82.9269 35.3789 83.2171Z" fill="#1674BA"/>
<path id="Vector_31" d="M17.918 55.7649C17.6207 56.055 17.4785 55.5748 17.4333 55.1646L17.6401 54.8145L17.9115 55.7649L17.918 55.7649Z" fill="#1674BA"/>
<path id="Vector_32" d="M21.1104 56.7653C21.0651 58.3159 20.7808 57.4255 20.1087 58.2559C19.456 58.2359 19.0941 56.7953 18.5383 56.5552L18.3961 55.5947C19.1264 55.4847 20.393 55.6248 21.1039 56.7653L21.1104 56.7653Z" fill="#1674BA"/>
<path id="Vector_33" d="M20.1342 64.1185C19.5526 64.5187 19.1648 63.1981 18.8417 63.0081C19.4362 63.1181 20.1729 63.4082 20.5801 63.5183C20.5607 63.8684 20.2957 63.9585 20.1342 64.1185Z" fill="white"/>
<path id="Vector_34" d="M14.4211 51.7831C14.4728 51.9031 14.5956 51.9732 14.7248 52.0432C14.8476 52.1132 14.9704 52.1833 15.1061 52.2833C15.3452 52.5134 15.5456 52.9036 15.4939 53.974C15.1578 54.0041 14.9769 54.3942 14.4922 54.2342C14.2595 55.2146 14.4728 55.3146 14.7442 55.2146C15.0157 55.1246 15.3775 54.7944 15.5649 54.9845C15.1126 55.0745 15.2612 56.185 15.5391 56.5652C16.25 56.5652 17.1741 57.3856 18.0724 57.9758C18.2985 58.8862 19.8819 58.4861 19.3067 60.2168C19.8689 60.667 20.2438 59.3064 20.7672 59.1163C21.6332 61.9176 24.0954 56.3851 25.0453 59.8066C25.2004 58.6661 25.9177 59.2464 26.2279 59.3364C26.8871 59.6266 28.4187 60.4369 27.5786 62.2377C26.816 63.3282 26.4929 60.617 25.5106 61.5874C23.8756 63.1181 26.4929 63.0881 26.0535 64.9289C25.9759 64.5087 25.4977 66.0494 25.1487 65.189C25.9759 66.6197 24.244 66.9498 24.5025 68.3604C23.0872 68.7906 23.1906 68.8707 22.092 70.8815C21.4975 70.1312 22.0338 68.6406 22.0338 67.6501C21.4845 66.3295 20.4635 68.1803 19.9012 67.37C19.8237 70.4814 18.3632 69.0507 17.5424 68.5705C16.4568 68.1703 17.7299 65.8793 16.5795 65.5292C15.7071 66.5896 17.3034 67.9502 16.2435 69.0107L15.8429 68.1503C15.7588 66.8598 15.8364 65.3091 15.649 64.2986C15.4228 64.1386 15.0867 63.9085 14.9704 64.3186C15.3 65.049 14.9058 66.0394 14.2402 66.2995C14.1238 65.7093 14.098 65.5592 14.1109 65.059C15.0027 63.8884 14.7572 63.6784 14.2919 63.4983C13.8266 63.2982 13.0898 63.0781 13.0705 61.9676C12.8184 61.0172 12.5923 60.657 12.3208 60.647C12.0559 60.637 11.7521 60.9572 11.4355 61.2873C10.8151 61.9376 10.0396 62.7379 9.40627 60.9572C10.2852 60.2468 10.1236 59.6266 9.81987 58.9162C9.49029 58.2459 9.00558 57.3956 9.06374 56.6552C8.70185 55.9249 8.1267 56.105 7.41583 55.8749C7.49984 55.4747 7.35766 54.6944 7.64847 54.3742C8.84402 53.834 10.0719 53.5939 11.248 53.2037C12.4371 52.8235 13.5164 52.2833 14.4987 51.563C14.4793 51.633 14.4599 51.703 14.4276 51.7631L14.4211 51.7831Z" fill="#1674BA"/>
</g>
</g>
</g>
</g>
<defs>
<clipPath id="clip0_0_1">
<rect width="1440" height="4513" fill="white" transform="translate(-39 -2925)"/>
</clipPath>
</defs>
</svg>
