<svg width="52" height="89" viewBox="0 0 52 89" fill="none" xmlns="http://www.w3.org/2000/svg">
<rect width="52" height="89" fill="#1E1E1E"/>
<g id="V5 - Page Accueil" clip-path="url(#clip0_0_1)">
<rect width="1440" height="4513" transform="translate(-1350 -2925)" fill="white"/>
<g id="NEWS">
<g id="Fl&#195;&#168;che ">
<g id="Group">
<path id="Vector" d="M38.6648 28.769C38.1866 28.6089 37.6567 27.6085 38.0832 26.9382L38.1995 26.3779C38.4968 26.7781 39.8797 28.1387 38.6648 28.769Z" fill="#1674BA"/>
<path id="Vector_2" d="M37.3529 32.3406C37.1202 31.7404 37.4692 31.7804 37.6437 31.5503L38.0831 32.0705C38.0702 32.5908 37.592 32.4207 37.3529 32.3406Z" fill="white"/>
<path id="Vector_3" d="M34.167 39.5038L34.2316 39.824C34.167 39.5038 33.999 39.2237 33.8633 39.1036C34.0119 38.7035 34.4255 38.5534 34.6258 38.9936C34.4514 39.2337 34.18 38.9936 34.167 39.5038Z" fill="#1674BA"/>
<path id="Vector_4" d="M30.6642 24.8773C30.089 25.9378 29.8241 28.0887 29.9275 29.7594L28.9194 31.4902C28.8806 30.1396 27.8143 29.8395 27.1422 29.2192C26.7221 29.3693 27.4911 30.4598 26.6704 30.2397C26.7156 29.8795 26.9677 29.4493 26.9031 29.1292C26.1082 29.0691 25.785 30.9 24.6864 29.2392L24.6477 27.8886C22.4569 25.7577 19.5359 25.0774 17.8621 22.076C17.0866 22.6863 16.1561 21.2957 15.2578 21.2657L15.4839 20.6754C14.702 21.2857 14.5857 19.4449 14.0751 19.1047L13.8942 18.1443C14.1333 17.0338 15.2513 18.8746 15.4839 17.0938C14.9476 15.4031 13.4483 16.9338 13.1252 15.173C12.4983 14.1925 12.3044 14.9429 11.7228 14.8028C11.3609 15.263 11.6324 15.5131 11.3028 16.1434C9.51268 14.8728 10.7212 11.7315 9.17018 10.5509C8.91169 10.9811 7.25082 11.0211 8.01985 12.8119L8.78241 12.7219L8.85349 13.7223C8.45282 13.3422 7.74845 12.5618 7.55458 13.3021C7.95525 10.611 3.98083 12.6118 6.47532 10.4209C6.91477 11.6414 7.16034 11.7315 7.96814 11.2913C6.53995 9.55049 5.58352 7.3195 4.3492 6.01892L3.56723 6.61919C3.94851 5.63875 3.61247 4.3882 3.12779 3.52782C2.78528 3.4678 2.48802 3.05762 2.36523 3.60786C2.00333 4.06806 4.38149 6.17899 2.5914 6.76926C1.37646 4.94845 0.290809 2.5774 0 0.296387C0.743179 0.736582 1.0986 1.47692 2.32646 0.896659C5.18285 2.00715 7.26376 5.56872 10.1719 6.29905C9.97152 7.04938 10.4626 7.90977 9.99735 8.39998C10.0103 9.08029 10.7987 9.15032 10.5596 10.2608C12.7051 11.0712 14.5211 13.6923 16.0591 15.3731C16.3305 13.2321 17.4809 15.223 18.2111 14.9729C18.3145 16.1334 19.1675 16.5136 19.7039 17.0138C19.8849 16.7837 20.2532 16.9938 20.376 16.4335C19.8978 16.2635 19.9172 15.7432 19.5876 15.173C20.2726 14.0825 20.4213 16.0734 20.9899 16.7337L20.3954 17.1138C21.3648 18.1343 21.6556 21.4558 23.045 21.1356L22.7865 19.1748C24.1177 19.735 24.7963 22.7263 26.2245 22.056C25.6687 20.8855 24.0531 20.6054 24.7575 18.9947C25.1582 18.1643 25.9983 19.0647 26.2504 19.825C27.3296 23.1965 30.1472 20.9856 30.6706 24.8973L30.6642 24.8773Z" fill="#1674BA"/>
<path id="Vector_5" d="M29.4491 19.675C27.9692 18.3344 27.7495 21.3157 26.4505 19.725C26.9869 19.0247 26.6121 17.6241 26.1791 17.0938C25.5199 17.1539 25.1322 16.2735 24.7315 15.9033C24.5376 15.4531 25.0159 14.4327 25.5522 14.9329C26.1209 17.9742 28.9063 16.8037 29.4491 19.675Z" fill="#1674BA"/>
<path id="Vector_6" d="M28.7127 25.7476C27.9308 25.1773 29.0488 23.4066 28.1182 23.2265C28.8613 22.4461 28.5189 23.5967 29.1974 24.2069L28.5705 24.437L28.7127 25.7576V25.7476Z" fill="white"/>
<path id="Vector_7" d="M23.9693 17.194C23.4588 16.8639 22.6122 15.2832 23.0581 14.1027C23.0258 13.9426 23.3877 13.4724 23.0452 13.4224C23.2972 14.1827 24.4346 15.4933 23.9693 17.194Z" fill="#1674BA"/>
<path id="Vector_8" d="M24.0986 23.8068C23.7561 23.7568 23.4847 23.5066 23.084 23.1465C23.4265 23.1965 23.95 23.0064 24.0986 23.8068Z" fill="white"/>
<path id="Vector_9" d="M22.4828 18.7446C22.2179 19.695 22.0046 18.5745 21.8689 18.4445L21.7461 17.8042C22.0886 17.8542 22.4634 18.0643 22.4764 18.7446H22.4828Z" fill="#1674BA"/>
<path id="Vector_10" d="M19.6004 12.2517C19.0769 11.2413 20.7507 11.8515 20.0204 10.9111L20.5245 11.2513L20.1367 12.752L19.6004 12.2617V12.2517Z" fill="#1674BA"/>
<path id="Vector_11" d="M19.0831 10.0507C18.7665 10.1608 18.5273 10.0708 18.3076 9.4705L18.6954 9.17036C18.9022 9.10033 18.8117 9.81064 19.0831 10.0608V10.0507Z" fill="#1674BA"/>
<path id="Vector_12" d="M18.6893 13.9326C18.2434 13.9125 18.573 13.2923 18.4825 12.8121C18.7669 12.5419 19.0642 14.1427 18.6893 13.9326Z" fill="#1674BA"/>
<path id="Vector_13" d="M12.1172 18.7547C12.8668 17.9843 13.2093 19.2349 13.9267 19.505C13.2093 19.2349 12.7117 19.575 12.1172 18.7547Z" fill="#1674BA"/>
<path id="Vector_14" d="M43.8604 32.4604C43.9831 33.1007 44.4355 33.1007 44.7457 32.9807V32.4604H43.8604Z" fill="#1674BA"/>
<path id="Vector_15" d="M40.0925 28.0686C39.2782 29.059 40.0408 28.939 40.2153 30.4196C40.8486 31.3801 42.0248 31.1099 42.7356 31.8703L43.4658 31.5902C42.7679 30.3196 41.3979 28.4388 40.0989 28.0686H40.0925Z" fill="#1674BA"/>
<path id="Vector_16" d="M36.9782 33.8413C37.3013 34.9217 38.3741 34.6916 38.7812 35.0518C38.1802 34.2515 37.3336 33.3611 36.8942 32.8408C36.7132 33.0809 36.9136 33.5211 36.9782 33.8413Z" fill="white"/>
<path id="Vector_17" d="M51.2148 38.5331C50.2648 37.7027 49.3729 35.4818 47.7121 36.122C48.0805 36.8424 47.9318 37.2325 48.5716 38.193C47.3502 39.3535 47.5247 36.8824 46.8462 36.2821C47.2468 37.1525 46.2451 37.1925 45.7346 36.8824C45.0367 35.6118 43.5762 34.4513 42.3548 33.3708C41.5922 33.4909 40.3062 30.8897 39.8861 32.7605C39.1042 32.2003 39.5113 30.8497 39.1171 29.9693C36.7324 30.3495 37.676 23.6665 35.007 24.3168C35.5111 23.4464 34.5999 22.7561 34.2961 22.3559C33.5917 21.5856 31.918 19.8148 31.5496 21.9958C31.5431 23.7065 33.3591 22.7061 33.6176 24.657C34.1281 27.8884 31.9438 24.0767 31.2523 25.6874C31.5625 25.5774 31.0778 27.1181 31.8727 27.1681C30.3282 26.7079 31.6465 29.4791 30.5996 29.8593C31.6142 32.2303 31.4785 32.1103 31.3492 34.8915C32.338 35.3817 32.687 33.721 33.2492 33.1707C34.49 33.2308 34.4318 35.8219 35.3947 36.1521C33.7662 38.1229 35.9182 39.3835 36.8682 40.2339C38.0185 41.5244 38.18 38.373 39.3627 39.8137C39.5048 41.6445 37.4239 40.1938 37.7277 42.3048L38.5225 42.3548C39.2916 41.7245 40.1059 40.7341 40.8361 40.464C41.1075 40.7041 41.5146 41.0642 41.3725 41.4644C40.681 41.3844 40.4548 42.4949 40.7844 43.5754C41.198 43.4153 41.3078 43.3753 41.5857 43.1051C41.618 39.3235 42.7813 44.0255 44.1707 43.1552C47.2791 43.0051 44.035 47.4971 46.6781 48.3775C46.9625 45.3461 48.6104 48.4975 49.6832 48.2474C50.2583 48.8777 50.2131 49.7581 50.3358 50.9086C50.6073 50.7985 51.1243 51.1087 51.3763 50.7085C52.3069 47.1769 52.1066 42.825 51.3634 38.4631C51.2923 38.4731 51.2277 38.4931 51.2018 38.5631L51.2148 38.5331Z" fill="#1674BA"/>
</g>
<g id="Group_2">
<path id="Vector_18" d="M30.5473 59.0826C30.2695 59.4827 29.6038 59.3727 29.5198 58.4523L29.3389 57.9521C29.6749 57.882 30.8317 57.3418 30.5473 59.0826Z" fill="#1674BA"/>
<path id="Vector_19" d="M31.4199 62.9641C31.0709 62.794 31.2454 62.4539 31.226 62.1037L31.6331 61.9937C31.8399 62.3638 31.562 62.764 31.4199 62.9641Z" fill="white"/>
<path id="Vector_20" d="M32.9259 71.348L33.081 71.4981C32.9259 71.348 32.7321 71.328 32.6287 71.388C32.5317 70.9579 32.6545 70.3976 32.9195 70.4877C32.9389 70.8378 32.7191 70.9679 32.9195 71.338L32.9259 71.348Z" fill="#1674BA"/>
<path id="Vector_21" d="M25.3519 65.3954C25.591 66.726 26.4376 68.3867 27.1937 69.3772L27.5491 71.6281C26.9546 70.7878 26.4247 71.7882 25.9141 72.1484C25.8301 72.7186 26.5798 72.5486 26.192 73.3289C26.0498 73.0488 25.9529 72.4985 25.7913 72.3585C25.4811 73.2189 26.1662 74.7195 25.0676 74.9196L24.4536 74.1193C22.754 75.2998 21.5649 78.2511 19.6973 78.5112C19.7684 79.7618 18.8701 80.0719 18.6245 81.1224L18.3983 80.5321C18.4953 81.7826 17.5841 80.9223 17.2868 81.3525L16.7698 81.0523C16.2916 80.1719 17.4742 79.8118 16.6599 78.5912C15.6841 78.3311 16.0589 80.9523 15.096 80.4321C14.4433 80.6822 14.7665 81.3124 14.5403 81.9527C14.676 82.633 14.8763 82.4329 15.096 83.1633C13.9651 84.7039 12.7179 81.6126 11.6774 82.8931C11.8261 83.4334 11.322 85.5043 12.4658 85.4943L12.6597 84.5038L13.1896 84.934C12.8794 85.2342 12.259 85.6944 12.5757 86.3347C11.9553 85.3842 11.5869 86.3947 11.3026 87.125C11.0182 87.8553 10.8631 88.2855 10.7533 86.1446C11.5223 86.2546 11.6451 85.9945 11.6839 84.764C10.3461 85.6144 8.89857 85.5543 7.78703 86.2646L7.74826 87.5552C7.43806 86.5247 6.70778 86.1646 6.10678 86.1946C5.93229 86.5648 5.60272 86.6248 5.79659 87.125C5.83537 87.8754 7.90335 86.3447 7.3799 88.8158C5.94524 89.1959 4.25208 88.8558 3.17285 87.5252C3.74154 87.035 4.25853 87.155 4.58166 85.3942C5.46055 84.1737 6.44929 83.4834 7.40573 82.6831C8.35571 81.8827 9.26694 80.9723 9.85502 79.4116C10.1652 80.0619 10.7274 79.9118 10.8437 80.7522C11.1863 81.0923 11.4447 80.1719 11.9294 81.0423C12.9311 78.8413 14.7083 77.961 15.9555 77.0005C14.9668 75.5399 16.2722 75.2097 16.3562 74.1893C16.9572 74.6895 17.3902 73.8791 17.7973 73.519C17.7392 73.1788 17.9589 72.8487 17.7262 72.3985C17.4936 72.8787 17.248 72.5686 16.8667 72.6486C16.5436 71.218 17.5647 72.1384 18.0623 71.8282V72.7587C18.8636 72.1584 20.518 73.7391 20.8217 71.9283L19.8136 71.0879C20.5245 69.8274 22.153 70.8278 22.3533 68.7669C21.6101 68.6969 20.9122 70.4276 20.4017 68.6568C20.1497 67.6964 20.8799 67.2362 21.3323 67.3963C22.3145 67.7764 22.8057 66.826 23.3227 66.0057C23.8332 65.1853 24.3696 64.485 25.3454 65.4354L25.3519 65.3954Z" fill="#1674BA"/>
<path id="Vector_22" d="M22.5086 63.5446C21.2937 64.455 22.5991 66.5159 21.3777 67.0762C21.2484 66.0257 20.4535 65.6356 20.04 65.8356C19.8267 66.646 19.2645 66.596 18.9478 66.8661C18.6635 66.8461 18.3404 65.6856 18.7733 65.3254C20.4277 66.4059 20.9447 62.4241 22.5151 63.5446H22.5086Z" fill="#1674BA"/>
<path id="Vector_23" d="M24.9709 68.1767C24.4216 68.7069 24.0467 66.3259 23.6138 67.2763C23.5427 65.9357 23.9369 67.0362 24.4733 66.646L24.3311 67.5064L24.9709 68.1767Z" fill="white"/>
<path id="Vector_24" d="M19.2895 68.5166C18.9534 68.9268 17.9065 69.0468 17.4864 67.8563C17.396 67.8063 17.2926 67.106 17.1504 67.4962C17.6092 67.6062 18.6432 66.9959 19.2895 68.5266V68.5166Z" fill="#1674BA"/>
<path id="Vector_25" d="M22.4304 72.2585C22.2947 72.6286 22.0879 72.7887 21.7842 73.0388C21.9199 72.6687 22.0104 71.9483 22.4304 72.2585Z" fill="white"/>
<path id="Vector_26" d="M19.5229 71.178C19.8848 72.0384 19.2838 71.6382 19.1804 71.7282L18.8379 71.5081C18.9736 71.128 19.1998 70.7978 19.5229 71.178Z" fill="#1674BA"/>
<path id="Vector_27" d="M15.4446 71.0179C14.7789 71.118 15.6061 69.3972 14.9082 69.7874L15.2378 69.3472L15.8582 70.6277L15.4446 71.0079V71.0179Z" fill="#1674BA"/>
<path id="Vector_28" d="M14.1784 70.4878C14.1332 70.928 14.0233 71.1781 13.655 71.1381L13.6162 70.4978C13.6421 70.2077 13.9716 70.6879 14.1784 70.4978V70.4878Z" fill="#1674BA"/>
<path id="Vector_29" d="M16 73.0386C15.8578 73.5788 15.651 72.8385 15.3796 72.6884C15.3344 72.1982 16.2132 72.6884 16 73.0386Z" fill="#1674BA"/>
<path id="Vector_30" d="M16.6211 83.5135C16.4337 82.2129 17.1381 82.443 17.4418 81.7327C17.1381 82.443 17.1769 83.2233 16.6211 83.5135Z" fill="#1674BA"/>
<path id="Vector_31" d="M34.082 56.0613C34.3793 56.3514 34.5215 55.8712 34.5667 55.461L34.3599 55.1108L34.0885 56.0613H34.082Z" fill="#1674BA"/>
<path id="Vector_32" d="M30.8896 57.0616C30.9349 58.6123 31.2192 57.7219 31.8913 58.5523C32.544 58.5323 32.9059 57.0917 33.4617 56.8515L33.6039 55.8911C32.8736 55.7811 31.607 55.9211 30.8961 57.0616H30.8896Z" fill="#1674BA"/>
<path id="Vector_33" d="M31.8658 64.4149C32.4474 64.8151 32.8352 63.4945 33.1583 63.3044C32.5638 63.4145 31.8271 63.7046 31.4199 63.8147C31.4393 64.1648 31.7043 64.2549 31.8658 64.4149Z" fill="white"/>
<path id="Vector_34" d="M37.5789 52.0795C37.5272 52.1995 37.4044 52.2696 37.2752 52.3396C37.1524 52.4096 37.0296 52.4797 36.8939 52.5797C36.6548 52.8098 36.4544 53.2 36.5061 54.2704C36.8422 54.3004 37.0231 54.6906 37.5078 54.5306C37.7405 55.511 37.5272 55.611 37.2558 55.511C36.9843 55.4209 36.6225 55.0908 36.4351 55.2809C36.8874 55.3709 36.7388 56.4814 36.4609 56.8616C35.75 56.8616 34.8259 57.6819 33.9276 58.2722C33.7015 59.1826 32.1181 58.7824 32.6933 60.5132C32.1311 60.9634 31.7562 59.6028 31.2328 59.4127C30.3668 62.214 27.9046 56.6815 26.9547 60.103C26.7996 58.9625 26.0823 59.5428 25.7721 59.6328C25.1129 59.9229 23.5813 60.7333 24.4214 62.5341C25.184 63.6246 25.5071 60.9134 26.4894 61.8838C28.1244 63.4145 25.5071 63.3845 25.9465 65.2253C26.0241 64.8051 26.5023 66.3458 26.8513 65.4854C26.0241 66.916 27.756 67.2462 27.4975 68.6568C28.9128 69.087 28.8094 69.167 29.908 71.1779C30.5025 70.4276 29.9662 68.9369 29.9662 67.9465C30.5155 66.6259 31.5365 68.4767 32.0988 67.6664C32.1763 70.7777 33.6368 69.3471 34.4576 68.8669C35.5432 68.4667 34.2701 66.1757 35.4205 65.8256C36.2929 66.886 34.6966 68.2466 35.7565 69.3071L36.1571 68.4467C36.2412 67.1562 36.1636 65.6055 36.351 64.595C36.5772 64.4349 36.9133 64.2048 37.0296 64.615C36.7 65.3454 37.0942 66.3358 37.7598 66.5959C37.8762 66.0056 37.902 65.8556 37.8891 65.3553C36.9973 64.1848 37.2428 63.9747 37.7081 63.7947C38.1734 63.5946 38.9102 63.3745 38.9295 62.264C39.1816 61.3136 39.4077 60.9534 39.6792 60.9434C39.9441 60.9334 40.2479 61.2535 40.5645 61.5837C41.1849 62.234 41.9604 63.0343 42.5937 61.2535C41.7148 60.5432 41.8764 59.9229 42.1801 59.2126C42.5097 58.5423 42.9944 57.692 42.9363 56.9516C43.2982 56.2213 43.8733 56.4014 44.5842 56.1713C44.5002 55.7711 44.6423 54.9908 44.3515 54.6706C43.156 54.1304 41.9281 53.8903 40.752 53.5001C39.5629 53.1199 38.4836 52.5797 37.5013 51.8594C37.5207 51.9294 37.5401 51.9994 37.5724 52.0595L37.5789 52.0795Z" fill="#1674BA"/>
</g>
</g>
</g>
</g>
<defs>
<clipPath id="clip0_0_1">
<rect width="1440" height="4513" fill="white" transform="translate(-1350 -2925)"/>
</clipPath>
</defs>
</svg>
