<svg width="22" height="32" viewBox="0 0 22 32" fill="none" xmlns="http://www.w3.org/2000/svg">
<path id="Vector" d="M10.9764 0.0435985C11.1314 -0.0453837 11.3298 0.00607584 11.4208 0.159383L10.9764 0.0435985ZM10.9764 0.0435985C10.9277 0.0714724 10.8876 0.111139 10.8594 0.159383L10.9764 0.0435985ZM20.9709 17.856L21.2772 18.7809L21.2498 18.8474L21.2818 18.9985C22.3129 23.8677 19.6724 28.9091 14.8248 30.7854C13.6063 31.2564 12.3105 31.5 11.0027 31.5C5.19524 31.4969 0.498855 26.8379 0.501955 21.1069V21.1067C0.501955 20.0803 0.658897 19.0613 0.962915 18.0815L0.970119 18.0583L0.975037 18.0345C1.03769 17.7311 1.08782 17.5243 1.20065 17.3344C1.20081 17.3341 1.20097 17.3339 1.20113 17.3336L1.22389 17.2957L1.24947 17.2532L1.25578 17.25L1.2664 17.225L1.29537 17.1769V17.157L1.32695 17.0828C1.70112 16.204 2.1966 15.38 2.80008 14.6353L2.80122 14.634L2.83034 14.6004L2.85307 14.5622L4.10245 12.4626L4.1028 12.462L7.02897 7.55997L7.02912 7.55972L9.9556 2.65078L9.95565 2.65069L11.1435 0.65912C11.4571 1.16327 11.7478 1.67638 12.0436 2.1986C12.216 2.50289 12.3902 2.81028 12.5716 3.12078L15.498 8.13464L15.498 8.13465L18.3324 12.9911L18.3327 12.9916L19.5824 15.1272L19.5827 15.1276L19.6141 15.1812L19.6243 15.1986L19.6359 15.2151C19.9841 15.7123 20.289 16.236 20.5439 16.7829L20.5444 16.7841C20.6169 16.9386 20.6848 17.0962 20.7479 17.2529L20.7771 17.3254L20.8074 17.3619L20.9603 17.8235L20.9612 17.826C20.9611 17.826 20.9611 17.826 20.9612 17.8261C20.9612 17.8262 20.9614 17.8267 20.9617 17.8277L20.9636 17.8335L20.9701 17.8536L20.9709 17.856ZM20.7962 17.328L20.7972 17.331L20.7963 17.328L20.7962 17.328ZM20.014 14.8747L18.7642 12.7391L21.2724 17.1754C21.2583 17.1314 21.2366 17.096 21.2117 17.066C21.1456 16.902 21.074 16.7358 20.9971 16.5718C20.7294 15.9971 20.4096 15.4482 20.0454 14.9283L20.014 14.8747Z" fill="white" stroke="#1674BA"/>
</svg>
