<svg width="30" height="31" viewBox="0 0 30 31" fill="none" xmlns="http://www.w3.org/2000/svg">
<g id="Facebook logo" clip-path="url(#clip0_353_137)">
<g id="XMLID_17_">
<path id="XMLID_22_" d="M30 15.16C30 6.87485 23.2852 0.160004 15 0.160004C6.71484 0.160004 0 6.87485 0 15.16C0 22.6477 5.48203 28.8534 12.6574 29.979V19.4995H8.85176V15.16H12.6574V11.8559C12.6574 8.09946 14.8928 6.02055 18.3205 6.02055C19.9641 6.02055 21.682 6.31645 21.682 6.31645V10.0067H19.7918C17.9262 10.0067 17.3508 11.1657 17.3508 12.3493V15.16H21.5098L20.8441 19.4995H17.3508V29.979C24.518 28.8534 30 22.6477 30 15.16Z" fill="#1877F2"/>
<path id="XMLID_18_" d="M20.8355 19.4995L21.5018 15.16H17.3428V12.3493C17.3428 11.1657 17.9264 10.0067 19.7838 10.0067H21.674V6.31645C21.674 6.31645 19.9561 6.02055 18.3125 6.02055C14.8854 6.02055 12.6494 8.10005 12.6494 11.8559V15.16H8.84375V19.4995H12.6494V29.979C13.4141 30.102 14.1945 30.16 14.992 30.16C15.7895 30.16 16.5699 30.0944 17.3346 29.979V19.4995H20.8355Z" fill="white"/>
</g>
</g>
<defs>
<clipPath id="clip0_353_137">
<rect width="30" height="30" fill="white" transform="translate(0 0.160004)"/>
</clipPath>
</defs>
</svg>
