<svg width="22" height="32" viewBox="0 0 22 32" fill="none" xmlns="http://www.w3.org/2000/svg">
<path id="Vector" d="M21.769 18.895C21.7929 18.8371 21.7983 18.7674 21.7712 18.6881L21.4428 17.6964C21.4395 17.6867 21.4363 17.676 21.433 17.6664L21.2704 17.1754C21.2563 17.1314 21.2347 17.096 21.2097 17.066C21.1436 16.902 21.0721 16.7358 20.9951 16.5718C20.7274 15.9971 20.4077 15.4482 20.0435 14.9283L20.012 14.8747L18.7623 12.7391L15.9279 7.88261L13.0014 2.86852C12.4833 1.98191 11.9955 1.06636 11.4427 0.199049C11.4341 0.186184 11.4265 0.172247 11.4189 0.159383C11.3278 0.00607585 11.1295 -0.0453837 10.9745 0.0435985C10.9257 0.0714724 10.8856 0.111139 10.8574 0.159383L9.52422 2.39466L6.5977 7.30369L3.67117 12.2063L2.42143 14.3065L2.41493 14.314C1.77976 15.0966 1.25841 15.9628 0.864953 16.887L0.793416 16.9234V17.0381L0.76957 17.0778C0.608069 17.349 0.545203 17.6342 0.483421 17.9333C0.164754 18.9604 1.60918e-06 20.0292 1.60918e-06 21.1067C-0.00325009 27.1188 4.92199 31.9968 11.0005 32C12.3705 32 13.7276 31.7448 15.0033 31.2517C20.0803 29.2866 22.8508 24.0034 21.769 18.895Z" fill="#1674BA"/>
</svg>
