<svg width="30" height="31" viewBox="0 0 30 31" fill="none" xmlns="http://www.w3.org/2000/svg">
<g id="instagram-icon logo" clip-path="url(#clip0_353_145)">
<path id="Vector" d="M15.0049 0.164032C8.74256 0.164032 6.91106 0.170492 6.55505 0.200025C5.2699 0.306852 4.4702 0.509199 3.59898 0.942965C2.92756 1.27637 2.39804 1.66283 1.87545 2.20458C0.923701 3.19255 0.346885 4.40802 0.138077 5.85283C0.0365574 6.55424 0.00702434 6.69729 0.00102545 10.28C-0.00128181 11.4743 0.00102545 13.046 0.00102545 15.1541C0.00102545 21.4114 0.00794725 23.2411 0.0379417 23.5964C0.141769 24.8469 0.337886 25.6337 0.753194 26.4943C1.54689 28.1417 3.06277 29.3784 4.84859 29.8399C5.46694 29.9991 6.14989 30.0867 7.02665 30.1283C7.39812 30.1444 11.1843 30.156 14.9729 30.156C18.7614 30.156 22.5499 30.1513 22.9122 30.1329C23.9274 30.0851 24.5169 30.006 25.1687 29.8376C26.0542 29.6105 26.8794 29.1928 27.5868 28.6138C28.2941 28.0348 28.8666 27.3083 29.2641 26.4851C29.6713 25.6453 29.8778 24.8285 29.9713 23.6432C29.9916 23.3848 30.0001 19.2647 30.0001 15.1502C30.0001 11.0349 29.9909 6.92248 29.9706 6.66406C29.876 5.45967 29.6695 4.64982 29.2491 3.79382C28.9042 3.09311 28.5211 2.56982 27.9651 2.03476C26.973 1.08694 25.7593 0.510122 24.3129 0.301545C23.6122 0.200256 23.4726 0.170262 19.8871 0.164032H15.0049Z" fill="url(#paint0_radial_353_145)"/>
<path id="Vector_2" d="M15.0049 0.164032C8.74256 0.164032 6.91106 0.170492 6.55505 0.200025C5.2699 0.306852 4.4702 0.509199 3.59898 0.942965C2.92756 1.27637 2.39804 1.66283 1.87545 2.20458C0.923701 3.19255 0.346885 4.40802 0.138077 5.85283C0.0365574 6.55424 0.00702434 6.69729 0.00102545 10.28C-0.00128181 11.4743 0.00102545 13.046 0.00102545 15.1541C0.00102545 21.4114 0.00794725 23.2411 0.0379417 23.5964C0.141769 24.8469 0.337886 25.6337 0.753194 26.4943C1.54689 28.1417 3.06277 29.3784 4.84859 29.8399C5.46694 29.9991 6.14989 30.0867 7.02665 30.1283C7.39812 30.1444 11.1843 30.156 14.9729 30.156C18.7614 30.156 22.5499 30.1513 22.9122 30.1329C23.9274 30.0851 24.5169 30.006 25.1687 29.8376C26.0542 29.6105 26.8794 29.1928 27.5868 28.6138C28.2941 28.0348 28.8666 27.3083 29.2641 26.4851C29.6713 25.6453 29.8778 24.8285 29.9713 23.6432C29.9916 23.3848 30.0001 19.2647 30.0001 15.1502C30.0001 11.0349 29.9909 6.92248 29.9706 6.66406C29.876 5.45967 29.6695 4.64982 29.2491 3.79382C28.9042 3.09311 28.5211 2.56982 27.9651 2.03476C26.973 1.08694 25.7593 0.510122 24.3129 0.301545C23.6122 0.200256 23.4726 0.170262 19.8871 0.164032H15.0049Z" fill="url(#paint1_radial_353_145)"/>
<path id="Vector_3" d="M14.9974 4.08638C11.9897 4.08638 11.6122 4.09953 10.4309 4.15329C9.25189 4.20728 8.44712 4.39394 7.74294 4.66781C7.01454 4.95068 6.39665 5.32907 5.78107 5.94488C5.16503 6.56046 4.78664 7.17835 4.50284 7.90652C4.22828 8.61093 4.04139 9.41594 3.98832 10.5945C3.93572 11.7758 3.92188 12.1535 3.92188 15.1613C3.92188 18.169 3.93526 18.5453 3.98879 19.7266C4.04301 20.9057 4.22966 21.7104 4.50331 22.4146C4.78641 23.143 5.1648 23.7609 5.78061 24.3765C6.39596 24.9925 7.01384 25.3718 7.74179 25.6547C8.44642 25.9286 9.25143 26.1152 10.4302 26.1692C11.6115 26.223 11.9888 26.2361 14.9963 26.2361C18.0043 26.2361 18.3806 26.223 19.5619 26.1692C20.7409 26.1152 21.5466 25.9286 22.2513 25.6547C22.9794 25.3718 23.5964 24.9925 24.2117 24.3765C24.8278 23.7609 25.2062 23.143 25.49 22.4148C25.7622 21.7104 25.9491 20.9054 26.0045 19.7269C26.0576 18.5456 26.0714 18.169 26.0714 15.1613C26.0714 12.1535 26.0576 11.776 26.0045 10.5947C25.9491 9.4157 25.7622 8.61093 25.49 7.90675C25.2062 7.17835 24.8278 6.56046 24.2117 5.94488C23.5957 5.32884 22.9797 4.95045 22.2506 4.66781C21.5445 4.39394 20.7393 4.20728 19.5603 4.15329C18.379 4.09953 18.0029 4.08638 14.9942 4.08638H14.9974ZM14.0039 6.08217C14.2988 6.0817 14.6278 6.08217 14.9974 6.08217C17.9544 6.08217 18.3049 6.09278 19.4726 6.14585C20.5524 6.19522 21.1385 6.37565 21.5289 6.52724C22.0457 6.72797 22.4142 6.96793 22.8015 7.35555C23.1892 7.74317 23.4291 8.11233 23.6303 8.62916C23.7819 9.01908 23.9626 9.60513 24.0117 10.6849C24.0648 11.8524 24.0763 12.2031 24.0763 15.1587C24.0763 18.1143 24.0648 18.465 24.0117 19.6325C23.9623 20.7123 23.7819 21.2984 23.6303 21.6883C23.4296 22.2051 23.1892 22.5731 22.8015 22.9605C22.4139 23.3481 22.0459 23.5881 21.5289 23.7888C21.1389 23.9411 20.5524 24.1211 19.4726 24.1704C18.3051 24.2235 17.9544 24.235 14.9974 24.235C12.0402 24.235 11.6897 24.2235 10.5223 24.1704C9.44247 24.1206 8.85643 23.9402 8.46581 23.7886C7.94898 23.5879 7.57982 23.3479 7.19219 22.9603C6.80457 22.5727 6.56462 22.2044 6.36342 21.6874C6.21184 21.2974 6.03118 20.7114 5.98203 19.6316C5.92897 18.4641 5.91835 18.1134 5.91835 15.156C5.91835 12.1985 5.92897 11.8496 5.98203 10.6822C6.03141 9.60236 6.21184 9.01632 6.36342 8.62593C6.56416 8.1091 6.80457 7.73994 7.19219 7.35232C7.57982 6.96469 7.94898 6.72474 8.46581 6.52355C8.8562 6.37127 9.44247 6.1913 10.5223 6.14169C11.5439 6.09555 11.9399 6.0817 14.0039 6.0794V6.08217ZM20.9091 7.92106C20.6463 7.92106 20.3893 7.99901 20.1707 8.14506C19.9522 8.29111 19.7818 8.4987 19.6813 8.74157C19.5807 8.98444 19.5544 9.25167 19.6057 9.50948C19.657 9.76729 19.7836 10.0041 19.9696 10.1899C20.1555 10.3758 20.3923 10.5023 20.6501 10.5535C20.908 10.6048 21.1752 10.5784 21.418 10.4777C21.6609 10.3771 21.8684 10.2067 22.0144 9.98805C22.1603 9.76944 22.2382 9.51245 22.2381 9.24958C22.2381 8.51587 21.6428 7.9206 20.9091 7.9206V7.92106ZM14.9974 9.47385C11.8566 9.47385 9.31003 12.0204 9.31003 15.1613C9.31003 18.3021 11.8566 20.8475 14.9974 20.8475C18.1383 20.8475 20.6842 18.3021 20.6842 15.1613C20.6842 12.0204 18.1383 9.47385 14.9974 9.47385ZM14.9974 11.4696C17.0361 11.4696 18.6891 13.1223 18.6891 15.1613C18.6891 17.2 17.0361 18.8529 14.9974 18.8529C12.9585 18.8529 11.3058 17.2 11.3058 15.1613C11.3058 13.1223 12.9585 11.4696 14.9974 11.4696Z" fill="white"/>
</g>
<defs>
<radialGradient id="paint0_radial_353_145" cx="0" cy="0" r="1" gradientUnits="userSpaceOnUse" gradientTransform="translate(7.96882 32.466) rotate(-90) scale(29.7242 27.6534)">
<stop stop-color="#FFDD55"/>
<stop offset="0.1" stop-color="#FFDD55"/>
<stop offset="0.5" stop-color="#FF543E"/>
<stop offset="1" stop-color="#C837AB"/>
</radialGradient>
<radialGradient id="paint1_radial_353_145" cx="0" cy="0" r="1" gradientUnits="userSpaceOnUse" gradientTransform="translate(-5.02518 2.3246) rotate(78.6776) scale(13.287 54.7833)">
<stop stop-color="#3771C8"/>
<stop offset="0.128" stop-color="#3771C8"/>
<stop offset="1" stop-color="#6600FF" stop-opacity="0"/>
</radialGradient>
<clipPath id="clip0_353_145">
<rect width="30" height="29.9919" fill="white" transform="translate(0 0.164032)"/>
</clipPath>
</defs>
</svg>
