<svg width="30" height="31" viewBox="0 0 30 31" fill="none" xmlns="http://www.w3.org/2000/svg">
<g id="Group">
<path id="Vector" d="M15 30.16C23.2843 30.16 30 23.4443 30 15.16C30 6.87573 23.2843 0.160004 15 0.160004C6.71573 0.160004 0 6.87573 0 15.16C0 23.4443 6.71573 30.16 15 30.16Z" fill="#007AB9"/>
<g id="Group_2">
<path id="Vector_2" d="M23.9629 16.3673V22.5515H20.3775V16.7818C20.3775 15.3331 19.8599 14.3437 18.5617 14.3437C17.571 14.3437 16.9825 15.0098 16.7226 15.6548C16.6282 15.8852 16.6039 16.2053 16.6039 16.5286V22.5513H13.0182C13.0182 22.5513 13.0663 12.7793 13.0182 11.7677H16.6041V13.2958C16.5969 13.3079 16.5867 13.3196 16.5803 13.3311H16.6041V13.2958C17.0806 12.5627 17.9304 11.5145 19.8355 11.5145C22.1944 11.5145 23.9629 13.0557 23.9629 16.3673ZM9.26723 6.56967C8.04072 6.56967 7.23828 7.37478 7.23828 8.43257C7.23828 9.4679 8.01745 10.2963 9.22017 10.2963H9.24343C10.494 10.2963 11.2716 9.4679 11.2716 8.43257C11.2478 7.37478 10.494 6.56967 9.26723 6.56967ZM7.45139 22.5515H11.0357V11.7677H7.45139V22.5515Z" fill="#F1F2F2"/>
</g>
</g>
</svg>
