<svg width="29" height="38" viewBox="0 0 29 38" fill="none" xmlns="http://www.w3.org/2000/svg">
<g id="Group 21">
<path id="Vector" d="M20.75 14.126C20.75 17.5777 17.9517 20.376 14.5 20.376C11.0483 20.376 8.25 17.5777 8.25 14.126C8.25 10.6742 11.0483 7.87598 14.5 7.87598C17.9517 7.87598 20.75 10.6742 20.75 14.126Z" stroke="#1674BA" stroke-width="2.5" stroke-linecap="round" stroke-linejoin="round"/>
<path id="Vector_2" d="M27 14.126C27 18.4457 22.106 26.6027 18.4425 32.5117C16.7417 35.2545 15.8915 36.626 14.5 36.626C13.1085 36.626 12.2583 35.2545 10.5575 32.5117C6.89408 26.6027 2 18.4457 2 14.126C2 7.22243 7.59645 1.62598 14.5 1.62598C21.4035 1.62598 27 7.22243 27 14.126Z" stroke="#1674BA" stroke-width="2.5" stroke-linecap="round" stroke-linejoin="round"/>
</g>
</svg>
