<svg width="37" height="27" viewBox="0 0 37 27" fill="none" xmlns="http://www.w3.org/2000/svg">
<path id="mail" fill-rule="evenodd" clip-rule="evenodd" d="M34.25 22.5C34.25 22.7284 34.2061 22.9444 34.1431 23.1503L24.125 12.375L34.25 4.5V22.5ZM4.5005 24.6893L14.6525 13.8712L18.5 16.7794L22.181 13.8532L32.4995 24.6893C32.3386 24.7264 4.66137 24.7264 4.5005 24.6893ZM2.75 22.5V4.5L12.875 12.375L2.85688 23.1503C2.79388 22.9444 2.75 22.7284 2.75 22.5ZM33.125 2.25L18.5 13.5L3.875 2.25H33.125ZM32 0H5C2.51487 0 0.5 2.01487 0.5 4.5V22.5C0.5 24.9851 2.51487 27 5 27H32C34.4851 27 36.5 24.9851 36.5 22.5V4.5C36.5 2.01487 34.4851 0 32 0Z" fill="#1674BA"/>
</svg>
