<svg width="31" height="30" viewBox="0 0 31 30" fill="none" xmlns="http://www.w3.org/2000/svg">
<path id="Vector" d="M2 5.37598C2 18.2166 12.4094 28.626 25.25 28.626C25.8293 28.626 26.4037 28.6048 26.9725 28.5631C27.6251 28.5153 27.9514 28.4914 28.2485 28.3204C28.4945 28.1788 28.7277 27.9277 28.851 27.672C29 27.3633 29 27.0031 29 26.283V22.057C29 21.4513 29 21.1485 28.9003 20.889C28.8124 20.6596 28.6692 20.4555 28.4838 20.2944C28.274 20.112 27.9893 20.0085 27.4202 19.8015L22.61 18.0523C21.9477 17.8116 21.6166 17.6911 21.3025 17.7115C21.0254 17.7295 20.7589 17.8242 20.5324 17.9847C20.2756 18.1666 20.0944 18.4687 19.7318 19.0731L18.5 21.126C14.5252 19.3258 11.3029 16.0993 9.5 12.126L11.5529 10.8942C12.1572 10.5317 12.4593 10.3504 12.6413 10.0936C12.8018 9.8671 12.8965 9.60053 12.9145 9.32353C12.9349 9.00938 12.8144 8.67827 12.5736 8.01605L10.8245 3.20579C10.6175 2.63662 10.514 2.35202 10.3316 2.14213C10.1705 1.95671 9.96634 1.8137 9.73703 1.72565C9.47744 1.62598 9.17462 1.62598 8.56898 1.62598H4.34301C3.62282 1.62598 3.26271 1.62598 2.95397 1.77485C2.69825 1.89817 2.44721 2.13149 2.30555 2.37752C2.13452 2.67458 2.11062 3.00091 2.06283 3.65357C2.02119 4.22227 2 4.79665 2 5.37598Z" stroke="#1674BA" stroke-width="2.5" stroke-linecap="round" stroke-linejoin="round"/>
</svg>
