<svg width="30" height="31" viewBox="0 0 30 31" fill="none" xmlns="http://www.w3.org/2000/svg">
<g id="Youtube logo" clip-path="url(#clip0_353_149)">
<path id="Vector" d="M0.00292969 22.5186V22.52C0.0209407 23.1864 0.0269444 23.8566 0.138853 24.5188C0.257966 25.2195 0.428231 25.9027 0.75303 26.5386C1.19218 27.3993 1.79339 28.1264 2.55666 28.7199C3.10323 29.1461 3.70036 29.4846 4.36136 29.6981C5.32508 30.009 6.31941 30.1281 7.32826 30.134C7.95769 30.1379 8.58676 30.1537 9.21642 30.151C13.7891 30.1318 18.3618 30.184 22.9347 30.1228C23.5415 30.1146 24.1383 30.0405 24.7339 29.9316C25.8753 29.7227 26.8841 29.2352 27.7472 28.4657C28.753 27.5686 29.4317 26.4705 29.7381 25.1454C29.9385 24.2792 29.9887 23.4005 29.9972 22.5185V22.3426C29.9972 22.2744 29.9713 7.35851 29.9689 7.16135C29.9623 6.61981 29.9223 6.08224 29.8208 5.54936C29.6973 4.9 29.5228 4.26721 29.2119 3.67981C28.8835 3.05903 28.4723 2.50105 27.9632 2.01331C27.184 1.26609 26.2848 0.737765 25.2375 0.458234C24.292 0.206079 23.3275 0.149884 22.3557 0.150845C22.3526 0.146469 22.3507 0.14132 22.3503 0.135956H7.64442C7.64442 0.140999 7.64442 0.145922 7.64358 0.150845C7.09208 0.160931 6.53986 0.156729 5.99124 0.22481C5.39028 0.299496 4.79495 0.412005 4.22616 0.622134C3.33017 0.953537 2.55161 1.46973 1.88665 2.15908C1.13318 2.93956 0.601857 3.84275 0.320404 4.89423C0.0688501 5.83237 0.0140965 6.78912 0.0127757 7.75271" fill="white"/>
<path id="Vector_2" d="M15.5311 23.4137L10.6136 23.3237C9.02144 23.2924 7.4253 23.355 5.86434 23.0303C3.48976 22.5452 3.32154 20.1666 3.14551 18.1715C2.90296 15.3666 2.99686 12.5107 3.45458 9.72924C3.71298 8.16852 4.72988 7.23723 6.30249 7.13588C11.6112 6.7681 16.9552 6.81169 22.2521 6.98327C22.8115 6.999 23.3748 7.08497 23.9264 7.18283C26.6493 7.66013 26.7157 10.3555 26.8922 12.6246C27.0683 14.917 26.9939 17.2212 26.6575 19.4981C26.3876 21.3832 25.8711 22.9641 23.6917 23.1167C20.961 23.3163 18.2929 23.4769 15.5545 23.4258C15.5546 23.4137 15.5389 23.4137 15.5311 23.4137ZM12.6401 18.641C14.6979 17.4595 16.7165 16.2976 18.7625 15.124C16.7009 13.9425 14.6862 12.7807 12.6401 11.6071V18.641Z" fill="#FF0000"/>
</g>
<defs>
<clipPath id="clip0_353_149">
<rect width="30" height="30.0481" fill="white" transform="translate(0 0.135956)"/>
</clipPath>
</defs>
</svg>
